<svg xmlns="http://www.w3.org/2000/svg" width="48" height="48" viewBox="0 0 256 256" fill="none" id="my-svg">
  <defs><pattern id="a" patternUnits="userSpaceOnUse" width="80" height="80" patternTransform="scale(3.19) rotate(0)"><rect x="0" y="0" width="100%" height="100%" fill="hsla(0,0%,100%,1)"></rect><path d="M-20.133 4.568C-13.178 4.932-6.452 7.376 0 10c6.452 2.624 13.036 5.072 20 5 6.967-.072 13.56-2.341 20-5 6.44-2.659 13.033-4.928 20-5 6.964-.072 13.548 2.376 20 5s13.178 5.068 20.133 5.432" stroke-width="30" stroke="#F79BD3" fill="none"></path><path d="M-20.133 24.568C-13.178 24.932-6.452 27.376 0 30c6.452 2.624 13.036 5.072 20 5 6.967-.072 13.56-2.341 20-5 6.44-2.659 13.033-4.928 20-5 6.964-.072 13.548 2.376 20 5s13.178 5.068 20.133 5.432" stroke-width="30" stroke="#EA1179" fill="none"></path><path d="M-20.133 44.568C-13.178 44.932-6.452 47.376 0 50c6.452 2.624 13.036 5.072 20 5 6.967-.072 13.56-2.341 20-5 6.44-2.659 13.033-4.928 20-5 6.964-.072 13.548 2.376 20 5s13.178 5.068 20.133 5.432" stroke-width="30" stroke="#9F0D7F" fill="none"></path><path d="M-20.133 64.568C-13.178 64.932-6.452 67.376 0 70c6.452 2.624 13.036 5.072 20 5 6.967-.072 13.56-2.341 20-5 6.44-2.659 13.033-4.928 20-5 6.964-.072 13.548 2.376 20 5s13.178 5.068 20.133 5.432" stroke-width="30" stroke="#241468" fill="none"></path></pattern>
    <linearGradient id="gradient1">
      <stop class="stop1" offset="0%" stop-color="#8f66ff"></stop>
      <stop class="stop2" offset="100%" stop-color="#3d12ff"></stop>
    </linearGradient>
  </defs>
  <rect id="backgr" width="256" height="256" fill="none" rx="60"></rect>
  <g id="group" transform="translate(0,0) scale(1)">
    <path d="M138.667 32.000C138.667 26.109 133.891 21.333 128.000 21.333C122.109 21.333 117.333 26.109 117.333 32.000V42.667C117.333 48.558 122.109 53.333 128.000 53.333C133.891 53.333 138.667 48.558 138.667 42.667V32.000Z" fill="url(#a)" stroke-width="14" id="filled" stroke="none" stroke-linecap="round" stroke-linejoin="round"></path>
    <path d="M203.425 67.660C207.590 63.494 207.590 56.740 203.425 52.575C199.260 48.409 192.506 48.409 188.340 52.575L180.798 60.117C176.633 64.283 176.633 71.037 180.798 75.202C184.963 79.368 191.717 79.368 195.883 75.202L203.425 67.660Z" fill="url(#a)" stroke-width="14" id="filled" stroke="none" stroke-linecap="round" stroke-linejoin="round"></path>
    <path d="M67.660 52.575C63.495 48.410 56.741 48.410 52.575 52.575C48.410 56.741 48.410 63.495 52.575 67.660L60.118 75.203C64.283 79.368 71.037 79.368 75.203 75.203C79.368 71.037 79.368 64.283 75.203 60.118L67.660 52.575Z" fill="url(#a)" stroke-width="14" id="filled" stroke="none" stroke-linecap="round" stroke-linejoin="round"></path>
    <path d="M128.000 64.000C92.654 64.000 64.000 92.654 64.000 128.000C64.000 163.346 92.654 192.000 128.000 192.000C163.346 192.000 192.000 163.346 192.000 128.000C192.000 92.654 163.346 64.000 128.000 64.000Z" fill="url(#a)" stroke-width="14" id="filled" stroke="none" stroke-linecap="round" stroke-linejoin="round"></path>
    <path d="M32.000 117.333C26.109 117.333 21.333 122.109 21.333 128.000C21.333 133.891 26.109 138.667 32.000 138.667H42.667C48.558 138.667 53.333 133.891 53.333 128.000C53.333 122.109 48.558 117.333 42.667 117.333H32.000Z" fill="url(#a)" stroke-width="14" id="filled" stroke="none" stroke-linecap="round" stroke-linejoin="round"></path>
    <path d="M213.333 117.333C207.442 117.333 202.667 122.109 202.667 128.000C202.667 133.891 207.442 138.667 213.333 138.667H224.000C229.891 138.667 234.667 133.891 234.667 128.000C234.667 122.109 229.891 117.333 224.000 117.333H213.333Z" fill="url(#a)" stroke-width="14" id="filled" stroke="none" stroke-linecap="round" stroke-linejoin="round"></path>
    <path d="M67.660 203.425L75.203 195.883C79.368 191.716 79.368 184.963 75.203 180.798C71.037 176.631 64.283 176.631 60.118 180.798L52.575 188.340C48.410 192.506 48.410 199.259 52.575 203.425C56.741 207.590 63.495 207.590 67.660 203.425Z" fill="url(#a)" stroke-width="14" id="filled" stroke="none" stroke-linecap="round" stroke-linejoin="round"></path>
    <path d="M180.798 180.798C176.633 184.963 176.633 191.717 180.798 195.883L188.340 203.425C192.506 207.590 199.260 207.590 203.425 203.425C207.590 199.260 207.590 192.506 203.425 188.340L195.883 180.798C191.717 176.633 184.963 176.633 180.798 180.798Z" fill="url(#a)" stroke-width="14" id="filled" stroke="none" stroke-linecap="round" stroke-linejoin="round"></path>
    <path d="M138.667 213.333C138.667 207.442 133.891 202.667 128.000 202.667C122.109 202.667 117.333 207.442 117.333 213.333V224.000C117.333 229.891 122.109 234.667 128.000 234.667C133.891 234.667 138.667 229.891 138.667 224.000V213.333Z" fill="url(#a)" stroke-width="14" id="filled" stroke="none" stroke-linecap="round" stroke-linejoin="round"></path>
  </g>
</svg>